<?xml version="1.0" encoding="iso-8859-1"?>
<!-- Uploaded to: SVG Repo, www.svgrepo.com, Generator: SVG Repo Mixer Tools -->
<svg height="800px" width="800px" version="1.1" id="Layer_1" xmlns="http://www.w3.org/2000/svg" xmlns:xlink="http://www.w3.org/1999/xlink" 
	 viewBox="0 0 512 512" xml:space="preserve">
<path style="fill:#FF5023;" d="M89.753,277.98c-8.225,17.42-21.657,28.766-36.83,28.766c-25.029,0-45.32-30.875-45.32-68.961
	s20.29-68.961,45.32-68.961c15.625,0,29.403,12.033,37.551,30.34L89.753,277.98z"/>
<path style="fill:#FF7956;" d="M470.894,401.402L73.442,272.696c-32.966-10.675-33.047-57.126-0.118-67.914l73.927-24.22
	l57.114-18.712l266.528-87.32L470.894,401.402L470.894,401.402z"/>
<path style="fill:#FF5023;" d="M470.894,74.531l-71.289,23.355c-9.728,28.6-16.233,80.633-16.233,140.08
	c0,59.654,6.552,111.842,16.335,140.378v0.005l71.186,23.052V74.531z"/>
<ellipse style="fill:#891C00;" cx="470.898" cy="237.962" rx="33.498" ry="163.434"/>
<path style="fill:#FF7956;" d="M265.514,334.831v55.288c0,6.988-7.171,11.679-13.574,8.878l-101.746-44.503
	c-5.205-2.277-8.569-7.419-8.569-13.101v-46.679l-32.632-10.567v71.066c0,8.639,5.114,16.458,13.029,19.919l133.021,58.184
	c19.961,8.731,42.322-5.894,42.322-27.681v-60.488L265.514,334.831z"/>
<g style="opacity:0.36;">
	<polygon style="fill:#891C00;" points="141.625,294.334 108.993,283.767 108.993,311.713 141.625,322.339 	"/>
	<polygon style="fill:#891C00;" points="297.365,344.766 265.514,334.452 265.514,362.682 297.365,373.052 	"/>
</g>
<path d="M502.033,120.873c-7.323-35.721-17.306-53.366-30.498-53.919c-0.04-0.003-0.079-0.002-0.119-0.005
	c-0.174-0.006-0.347-0.021-0.523-0.021c-0.015,0-0.03,0.002-0.047,0.002c-0.09,0-0.179,0.007-0.27,0.011
	c-2.573,0.053-5.025,0.754-7.359,2.104l-261.22,85.581c-3.992,1.307-6.166,5.602-4.858,9.593c1.049,3.205,4.026,5.239,7.225,5.239
	c0.784,0,1.583-0.123,2.368-0.38l181.554-59.48c-7.915,31.504-12.519,77.957-12.519,128.371c0,50.638,4.636,97.218,12.606,128.721
	l-119.717-38.767c-0.001,0-0.003-0.001-0.004-0.002l-123.888-40.117c-0.001,0-0.002,0-0.003-0.001l-68.978-22.336
	c-14.357-4.65-19.49-16.838-19.507-26.694c-0.017-9.857,5.074-22.062,19.414-26.761l17.117-5.608c0.02-0.007,0.042-0.013,0.062-0.02
	l56.749-18.592c3.992-1.307,6.166-5.602,4.858-9.593c-1.307-3.991-5.599-6.167-9.593-4.858l-50.53,16.554
	c-9.938-18.077-25.067-28.67-41.431-28.67c-14.751,0-28.387,8.391-38.4,23.627C5.158,199.098,0,217.899,0,237.787
	s5.158,38.687,14.523,52.939c10.013,15.235,23.649,23.626,38.4,23.626c15.819,0,30.635-10.037,40.578-27.166l7.889,2.555v67.077
	c0,11.659,6.903,22.213,17.585,26.887l133.021,58.184c0,0,0,0,0.001,0c4.875,2.133,10.034,3.186,15.173,3.186
	c7.232,0,14.418-2.087,20.683-6.186c10.718-7.01,17.116-18.841,17.116-31.648v-51.575l158.326,51.268
	c2.393,1.369,4.907,2.062,7.55,2.07c0.017,0,0.034,0.004,0.052,0.004c0.018,0,0.035-0.004,0.054-0.004
	c13.483-0.05,23.651-17.694,31.083-53.944c6.428-31.357,9.967-72.94,9.967-117.093S508.461,152.23,502.033,120.873z
	 M390.976,237.966c0-53.944,5.591-104.69,14.677-134.06l42.829-14.032c-3.252,8.132-6.153,18.449-8.725,30.998
	c-6.428,31.356-9.967,72.939-9.967,117.093c0,44.153,3.539,85.736,9.967,117.093c2.584,12.606,5.5,22.957,8.77,31.106
	l-42.785-13.854C396.602,342.984,390.976,292.13,390.976,237.966z M150.027,307.032l108.68,35.193V390.5
	c0,0.933-0.514,1.464-0.945,1.746c-0.43,0.281-1.12,0.538-1.977,0.166l-101.746-44.504c-2.436-1.067-4.012-3.474-4.012-6.135
	L150.027,307.032L150.027,307.032z M52.923,299.143c-20.444,0-37.715-28.098-37.715-61.356c0-33.26,17.271-61.358,37.715-61.358
	c9.968,0,19.562,6.718,26.652,18.304l-8.618,2.824c-18.189,5.958-29.921,22.146-29.888,41.238s11.82,35.24,30.03,41.135l7.511,2.432
	C71.614,292.999,62.386,299.143,52.923,299.143z M289.761,407.238c0,7.77-3.73,14.668-10.233,18.921
	c-6.504,4.254-14.318,4.909-21.439,1.795h0.001l-133.021-58.183c-5.146-2.252-8.472-7.335-8.472-12.953v-60.61l18.222,5.901v39.666
	c0,8.702,5.151,16.58,13.124,20.067l101.746,44.504c0,0,0,0,0.001,0c2.228,0.975,4.588,1.457,6.938,1.457
	c3.307,0,6.593-0.953,9.458-2.828c4.902-3.206,7.828-8.617,7.828-14.473v-43.35l15.846,5.131L289.761,407.238L289.761,407.238z
	 M487.7,349.176c-6.292,32.245-13.582,42.635-16.364,44.377l-1.534-0.497c-3.15-2.808-9.865-13.896-15.715-43.878
	c-5.863-30.047-9.092-69.543-9.092-111.21c0-41.67,3.229-81.165,9.092-111.211c5.834-29.9,12.528-41.01,15.689-43.857l1.567-0.514
	c2.788,1.757,10.07,12.159,16.356,44.372c5.863,30.047,9.092,69.542,9.092,111.209S493.563,319.129,487.7,349.176z"/>
<path d="M167.531,220.303c0.663,0,1.338-0.088,2.01-0.272l162.31-44.404c4.05-1.108,6.436-5.29,5.328-9.342
	c-1.108-4.049-5.28-6.435-9.342-5.328l-162.31,44.404c-4.05,1.108-6.436,5.29-5.328,9.342
	C161.126,218.083,164.189,220.303,167.531,220.303z"/>
</svg>